# xmcd
#
# Track frame offsets:
#	150
#	17847
#	33616
#	52935
#	70828
#	90233
#	105384
#	121881
#	136047
#	152358
#	170085
#	187949
#	209047
#	226210
#	241413
#	259723
#	274894
#	287773
#	302933
#	313883
#	331648
#
# Disc length: 4663 seconds
#
# Revision: 1
# Processed by: cddbd v1.5.1PL0 Copyright (c) Steve Scherf et al.
# Submitted via: audiograbber 1.80
#
DISCID=1e123515
DTITLE=Various Artist - ERG NCT 130
DYEAR=2005
DGENRE=Country
TTITLE0=Keith Urban - Makin Memories Of Us
TTITLE1=Kenny Chesney - Keg In The Closet
TTITLE2=Bobby Pinson - Don't Ask Me How I Know
TTITLE3=Big and Rich - Big Time
TTITLE4=Carolyn Dawn Johnson - Dress Rehearsal
TTITLE5=Gretchen Wilson - Homewrecker
TTITLE6=Pat Green, - Baby Doll
TTITLE7=Shelly Fairchild - Tiny Town
TTITLE8=Toby Keith - Honkytonk U
TTITLE9=Lisa Brokop - Hey, Do You Know Me
TTITLE10=Reba Mcentire - My Sister
TTITLE11=Darryl Worley - If Something Should Happen
TTITLE12=Hanna Mceuen - Something Like A Broken Heart
TTITLE13=Hot Apple Pie - Hillbillies
TTITLE14=Van Zant - Help Somebody
TTITLE15=Tracy Byrd - Tiny Town
TTITLE16=Deryl Dodd - Love Or Something Like It
TTITLE17=David Ball - Happy With The One I've Got
TTITLE18=Dallas Wayne - 330 In The Afternoon
TTITLE19=Jason and Stragglers Boland - If You Want To Hear A Love Song
TTITLE20=Kevin Fowler - Hard Man To Love
EXTD=
EXTT0=
EXTT1=
EXTT2=
EXTT3=
EXTT4=
EXTT5=
EXTT6=
EXTT7=
EXTT8=
EXTT9=
EXTT10=
EXTT11=
EXTT12=
EXTT13=
EXTT14=
EXTT15=
EXTT16=
EXTT17=
EXTT18=
EXTT19=
EXTT20=
PLAYORDER=
